M48
;Layer_Color=9474304
;FILE_FORMAT=4:4
METRIC,LZ
;TYPE=PLATED
T1F00S00C0.6000
T2F00S00C0.8000
T3F00S00C1.0000
T4F00S00C1.2000
T5F00S00C2.5000
%
T01
X002Y004
X00200508Y00454864
X00400508Y00404864
X004Y0035
T02
X00125Y000992
X00155Y002467
X002Y002484
Y0035
X00155Y003483
X003625Y00375
Y002734
X00125Y002008
T03
X0005Y00125
X0022775Y001305
X002825Y001
X00315
Y002
X002825
X002275
X0005Y00175
X00055Y002375
Y002629
X0005Y00325
Y00375
T04
X00202354Y00062754
X002275
X00252646Y00062246
X004Y001
Y0015
Y002
X00325Y00325
Y0035
Y00375
Y004
X0025
Y00375
Y0035
Y00325
T05
X00025Y00025
X00425
Y00475
X00025
M30
